<svg width="45" height="36" viewBox="0 0 45 36" fill="none" xmlns="http://www.w3.org/2000/svg">
<path d="M28.2619 0C31.6819 0 34.4363 -5.64676e-08 36.6056 0.293684C38.8556 0.600632 40.7494 1.25432 42.2531 2.77579C43.7588 4.29537 44.4056 6.21095 44.7094 8.48463C45 10.6749 45 13.4583 45 16.9143V19.0857C45 22.5417 45 25.3251 44.7094 27.5173C44.4056 29.7909 43.7588 31.7046 42.2531 33.2242C40.7494 34.7457 38.8556 35.3994 36.6037 35.7063C34.4362 36 31.6819 36 28.2619 36H16.7381C13.3181 36 10.5638 36 8.39438 35.7063C6.14438 35.3994 4.25063 34.7457 2.745 33.2242C1.24125 31.7046 0.594375 29.7909 0.290625 27.5154C0 25.3251 0 22.5417 0 19.0857V16.9143C0 13.4583 0 10.6749 0.290625 8.48274C0.594375 6.20905 1.24125 4.29537 2.74688 2.77389C4.25063 1.25432 6.14625 0.600632 8.39625 0.293684C10.5638 -5.64676e-08 13.3181 0 16.7381 0H28.2619ZM30.9356 18.0019L17.4375 10.1027V25.9011L30.9356 18.0019Z" fill="white"/>
</svg>
